<mxfile host="app.diagrams.net" agent="Mozilla/5.0 (Windows NT 10.0; Win64; x64; rv:131.0) Gecko/20100101 Firefox/131.0" version="24.7.17">
  <diagram name="Page-1" id="c7488fd3-1785-93aa-aadb-54a6760d102a">
    <mxGraphModel dx="1366" dy="1355" grid="1" gridSize="10" guides="1" tooltips="1" connect="1" arrows="1" fold="1" page="1" pageScale="1" pageWidth="880" pageHeight="625" background="none" math="0" shadow="0">
      <root>
        <mxCell id="0" />
        <mxCell id="1" parent="0" />
        <mxCell id="2b4e8129b02d487f-1" value="&lt;font style=&quot;font-size: 14px;&quot;&gt;Vision-Brain Coordination Pipeline&lt;/font&gt;" style="swimlane;html=1;childLayout=stackLayout;horizontal=1;startSize=30;horizontalStack=0;rounded=0;shadow=0;labelBackgroundColor=none;strokeWidth=1;fontFamily=Verdana;fontSize=8;align=center;" parent="1" vertex="1">
          <mxGeometry x="10" y="10" width="860" height="610" as="geometry">
            <mxRectangle x="180" y="70" width="60" height="20" as="alternateBounds" />
          </mxGeometry>
        </mxCell>
        <mxCell id="2b4e8129b02d487f-2" value="&lt;font style=&quot;font-size: 14px;&quot;&gt;Acquisition&lt;/font&gt;" style="swimlane;html=1;startSize=20;horizontal=0;" parent="2b4e8129b02d487f-1" vertex="1">
          <mxGeometry y="30" width="860" height="230" as="geometry" />
        </mxCell>
        <mxCell id="igUlxk_vqTw7oJpc5ab_-1" style="edgeStyle=orthogonalEdgeStyle;rounded=0;orthogonalLoop=1;jettySize=auto;html=1;exitX=1;exitY=0.5;exitDx=0;exitDy=0;entryX=0;entryY=0.5;entryDx=0;entryDy=0;" edge="1" parent="2b4e8129b02d487f-2" source="igUlxk_vqTw7oJpc5ab_-2" target="igUlxk_vqTw7oJpc5ab_-12">
          <mxGeometry relative="1" as="geometry" />
        </mxCell>
        <mxCell id="igUlxk_vqTw7oJpc5ab_-2" value="&lt;font style=&quot;font-size: 14px;&quot;&gt;Tobii Data&lt;/font&gt;" style="rounded=1;whiteSpace=wrap;html=1;glass=0;perimeterSpacing=0;fillColor=#f5f5f5;strokeColor=#666666;fontColor=#333333;" vertex="1" parent="2b4e8129b02d487f-2">
          <mxGeometry x="180" y="115" width="90" height="30" as="geometry" />
        </mxCell>
        <mxCell id="igUlxk_vqTw7oJpc5ab_-3" style="edgeStyle=orthogonalEdgeStyle;rounded=0;orthogonalLoop=1;jettySize=auto;html=1;exitX=1;exitY=0.5;exitDx=0;exitDy=0;entryX=0;entryY=0.5;entryDx=0;entryDy=0;" edge="1" parent="2b4e8129b02d487f-2" source="igUlxk_vqTw7oJpc5ab_-4" target="igUlxk_vqTw7oJpc5ab_-12">
          <mxGeometry relative="1" as="geometry" />
        </mxCell>
        <mxCell id="igUlxk_vqTw7oJpc5ab_-4" value="&lt;font style=&quot;font-size: 14px;&quot;&gt;MediaPipe&lt;/font&gt;" style="rounded=1;whiteSpace=wrap;html=1;glass=0;perimeterSpacing=0;fillColor=#f5f5f5;strokeColor=#666666;fontColor=#333333;" vertex="1" parent="2b4e8129b02d487f-2">
          <mxGeometry x="180" y="160" width="92.5" height="30" as="geometry" />
        </mxCell>
        <mxCell id="igUlxk_vqTw7oJpc5ab_-5" style="edgeStyle=orthogonalEdgeStyle;rounded=0;orthogonalLoop=1;jettySize=auto;html=1;exitX=1;exitY=0.5;exitDx=0;exitDy=0;entryX=0;entryY=0.5;entryDx=0;entryDy=0;" edge="1" parent="2b4e8129b02d487f-2" source="igUlxk_vqTw7oJpc5ab_-6" target="igUlxk_vqTw7oJpc5ab_-12">
          <mxGeometry relative="1" as="geometry" />
        </mxCell>
        <mxCell id="igUlxk_vqTw7oJpc5ab_-6" value="&lt;div style=&quot;font-size: 14px;&quot;&gt;&lt;font style=&quot;font-size: 14px;&quot;&gt;Experimental&lt;/font&gt;&lt;/div&gt;&lt;div style=&quot;font-size: 14px;&quot;&gt;&lt;font style=&quot;font-size: 14px;&quot;&gt;Data&lt;br&gt;&lt;/font&gt;&lt;/div&gt;" style="rounded=1;whiteSpace=wrap;html=1;glass=0;perimeterSpacing=0;fillColor=#f5f5f5;strokeColor=#666666;fontColor=#333333;" vertex="1" parent="2b4e8129b02d487f-2">
          <mxGeometry x="180" y="60" width="92.5" height="40" as="geometry" />
        </mxCell>
        <mxCell id="igUlxk_vqTw7oJpc5ab_-7" style="edgeStyle=orthogonalEdgeStyle;rounded=0;orthogonalLoop=1;jettySize=auto;html=1;exitX=1;exitY=0.5;exitDx=0;exitDy=0;" edge="1" parent="2b4e8129b02d487f-2" source="igUlxk_vqTw7oJpc5ab_-8" target="igUlxk_vqTw7oJpc5ab_-6">
          <mxGeometry relative="1" as="geometry" />
        </mxCell>
        <mxCell id="igUlxk_vqTw7oJpc5ab_-8" value="&lt;font style=&quot;font-size: 14px;&quot;&gt;Stimulus&lt;/font&gt;" style="rounded=1;whiteSpace=wrap;html=1;glass=0;perimeterSpacing=0;fillColor=#f5f5f5;fontColor=#333333;strokeColor=#666666;" vertex="1" parent="2b4e8129b02d487f-2">
          <mxGeometry x="65" y="30" width="80" height="40" as="geometry" />
        </mxCell>
        <mxCell id="igUlxk_vqTw7oJpc5ab_-9" style="edgeStyle=orthogonalEdgeStyle;rounded=0;orthogonalLoop=1;jettySize=auto;html=1;exitX=1;exitY=0.5;exitDx=0;exitDy=0;entryX=0;entryY=0.5;entryDx=0;entryDy=0;" edge="1" parent="2b4e8129b02d487f-2" source="igUlxk_vqTw7oJpc5ab_-10" target="igUlxk_vqTw7oJpc5ab_-6">
          <mxGeometry relative="1" as="geometry" />
        </mxCell>
        <mxCell id="igUlxk_vqTw7oJpc5ab_-10" value="&lt;font style=&quot;font-size: 14px;&quot;&gt;Subject&lt;/font&gt;" style="rounded=1;whiteSpace=wrap;html=1;glass=0;perimeterSpacing=0;fillColor=#f5f5f5;strokeColor=#666666;fontColor=#333333;" vertex="1" parent="2b4e8129b02d487f-2">
          <mxGeometry x="65" y="90" width="80" height="40" as="geometry" />
        </mxCell>
        <mxCell id="igUlxk_vqTw7oJpc5ab_-11" style="edgeStyle=orthogonalEdgeStyle;rounded=0;orthogonalLoop=1;jettySize=auto;html=1;exitX=1;exitY=0.5;exitDx=0;exitDy=0;entryX=0;entryY=0.5;entryDx=0;entryDy=0;" edge="1" parent="2b4e8129b02d487f-2" source="igUlxk_vqTw7oJpc5ab_-12" target="igUlxk_vqTw7oJpc5ab_-14">
          <mxGeometry relative="1" as="geometry" />
        </mxCell>
        <mxCell id="igUlxk_vqTw7oJpc5ab_-12" value="&lt;div style=&quot;font-size: 14px;&quot;&gt;&lt;font style=&quot;font-size: 14px;&quot;&gt;Data&lt;br&gt;&lt;/font&gt;&lt;/div&gt;&lt;div style=&quot;font-size: 14px;&quot;&gt;&lt;font style=&quot;font-size: 14px;&quot;&gt;Aquisition&lt;/font&gt;&lt;/div&gt;" style="shape=process;whiteSpace=wrap;html=1;backgroundOutline=1;fillColor=#dae8fc;strokeColor=#6c8ebf;" vertex="1" parent="2b4e8129b02d487f-2">
          <mxGeometry x="325" y="100" width="120" height="60" as="geometry" />
        </mxCell>
        <mxCell id="igUlxk_vqTw7oJpc5ab_-13" style="edgeStyle=orthogonalEdgeStyle;rounded=0;orthogonalLoop=1;jettySize=auto;html=1;exitX=1;exitY=0.5;exitDx=0;exitDy=0;entryX=0;entryY=0.5;entryDx=0;entryDy=0;" edge="1" parent="2b4e8129b02d487f-2" source="igUlxk_vqTw7oJpc5ab_-14" target="igUlxk_vqTw7oJpc5ab_-15">
          <mxGeometry relative="1" as="geometry" />
        </mxCell>
        <mxCell id="igUlxk_vqTw7oJpc5ab_-14" value="&lt;div style=&quot;font-size: 14px;&quot;&gt;&lt;font style=&quot;font-size: 14px;&quot;&gt;&lt;span class=&quot;hljs-title class_&quot;&gt;JSON&lt;/span&gt;&lt;br&gt;&lt;/font&gt;&lt;/div&gt;&lt;div style=&quot;font-size: 14px;&quot;&gt;&lt;font style=&quot;font-size: 14px;&quot;&gt;{ &lt;span class=&quot;hljs-title class_&quot;&gt;Exp&lt;/span&gt;-&lt;span class=&quot;hljs-title class_&quot;&gt;Data&lt;/span&gt;,&lt;/font&gt;&lt;/div&gt;&lt;div style=&quot;font-size: 14px;&quot;&gt;&lt;font style=&quot;font-size: 14px;&quot;&gt;&lt;span class=&quot;hljs-title class_&quot;&gt;Tobii&lt;/span&gt;,&lt;br&gt;  &lt;span class=&quot;hljs-title class_&quot;&gt;MediaPipe&lt;/span&gt; }&lt;/font&gt;&lt;/div&gt;" style="shape=parallelogram;perimeter=parallelogramPerimeter;whiteSpace=wrap;html=1;fixedSize=1;fillColor=#f5f5f5;fontColor=#333333;strokeColor=#666666;" vertex="1" parent="2b4e8129b02d487f-2">
          <mxGeometry x="490" y="90" width="145" height="80" as="geometry" />
        </mxCell>
        <mxCell id="igUlxk_vqTw7oJpc5ab_-15" value="&lt;div style=&quot;font-size: 14px;&quot;&gt;&lt;font style=&quot;font-size: 14px;&quot;&gt;Database&lt;/font&gt;&lt;/div&gt;&lt;div style=&quot;font-size: 14px;&quot;&gt;&lt;font style=&quot;font-size: 14px;&quot;&gt;&amp;nbsp;Storage&lt;/font&gt;&lt;/div&gt;" style="shape=dataStorage;whiteSpace=wrap;html=1;fixedSize=1;align=center;fillColor=#f5f5f5;fontColor=#333333;strokeColor=#666666;" vertex="1" parent="2b4e8129b02d487f-2">
          <mxGeometry x="675" y="90" width="120" height="80" as="geometry" />
        </mxCell>
        <mxCell id="igUlxk_vqTw7oJpc5ab_-58" style="edgeStyle=orthogonalEdgeStyle;rounded=0;orthogonalLoop=1;jettySize=auto;html=1;exitX=0.5;exitY=1;exitDx=0;exitDy=0;entryX=0.5;entryY=0;entryDx=0;entryDy=0;" edge="1" parent="2b4e8129b02d487f-2" source="igUlxk_vqTw7oJpc5ab_-57" target="igUlxk_vqTw7oJpc5ab_-12">
          <mxGeometry relative="1" as="geometry" />
        </mxCell>
        <mxCell id="igUlxk_vqTw7oJpc5ab_-57" value="&lt;font style=&quot;font-size: 14px;&quot;&gt;Start&lt;/font&gt;" style="ellipse;whiteSpace=wrap;html=1;fillColor=#e1d5e7;strokeColor=#9673a6;" vertex="1" parent="2b4e8129b02d487f-2">
          <mxGeometry x="325" y="25" width="120" height="45" as="geometry" />
        </mxCell>
        <mxCell id="2b4e8129b02d487f-3" value="&lt;font style=&quot;font-size: 14px;&quot;&gt;Processing&lt;/font&gt;" style="swimlane;html=1;startSize=20;horizontal=0;" parent="2b4e8129b02d487f-1" vertex="1">
          <mxGeometry y="260" width="860" height="160" as="geometry" />
        </mxCell>
        <mxCell id="igUlxk_vqTw7oJpc5ab_-29" style="edgeStyle=orthogonalEdgeStyle;rounded=0;orthogonalLoop=1;jettySize=auto;html=1;exitX=1;exitY=0.5;exitDx=0;exitDy=0;entryX=0;entryY=0.5;entryDx=0;entryDy=0;" edge="1" parent="2b4e8129b02d487f-3" target="igUlxk_vqTw7oJpc5ab_-28">
          <mxGeometry relative="1" as="geometry">
            <mxPoint x="179.75999999999976" y="75" as="sourcePoint" />
          </mxGeometry>
        </mxCell>
        <mxCell id="igUlxk_vqTw7oJpc5ab_-18" value="&lt;div style=&quot;font-size: 14px;&quot; align=&quot;center&quot;&gt;&lt;font style=&quot;font-size: 14px;&quot;&gt;Database&lt;/font&gt;&lt;/div&gt;&lt;div style=&quot;font-size: 14px;&quot; align=&quot;center&quot;&gt;&lt;font style=&quot;font-size: 14px;&quot;&gt;Retrieval&lt;br&gt;&lt;/font&gt;&lt;/div&gt;" style="shape=dataStorage;whiteSpace=wrap;html=1;fixedSize=1;align=center;fillColor=#f5f5f5;fontColor=#333333;strokeColor=#666666;" vertex="1" parent="2b4e8129b02d487f-3">
          <mxGeometry x="59.760000000000005" y="35" width="120" height="80" as="geometry" />
        </mxCell>
        <mxCell id="igUlxk_vqTw7oJpc5ab_-31" value="" style="edgeStyle=orthogonalEdgeStyle;rounded=0;orthogonalLoop=1;jettySize=auto;html=1;" edge="1" parent="2b4e8129b02d487f-3" source="igUlxk_vqTw7oJpc5ab_-28" target="igUlxk_vqTw7oJpc5ab_-30">
          <mxGeometry relative="1" as="geometry" />
        </mxCell>
        <mxCell id="igUlxk_vqTw7oJpc5ab_-28" value="&lt;font style=&quot;font-size: 14px;&quot;&gt;Data Calibration&lt;/font&gt;" style="rounded=0;whiteSpace=wrap;html=1;fillColor=#dae8fc;strokeColor=#6c8ebf;" vertex="1" parent="2b4e8129b02d487f-3">
          <mxGeometry x="210" y="45" width="120" height="60" as="geometry" />
        </mxCell>
        <mxCell id="igUlxk_vqTw7oJpc5ab_-34" value="" style="edgeStyle=orthogonalEdgeStyle;rounded=0;orthogonalLoop=1;jettySize=auto;html=1;" edge="1" parent="2b4e8129b02d487f-3" source="igUlxk_vqTw7oJpc5ab_-30" target="igUlxk_vqTw7oJpc5ab_-33">
          <mxGeometry relative="1" as="geometry" />
        </mxCell>
        <mxCell id="igUlxk_vqTw7oJpc5ab_-30" value="&lt;font style=&quot;font-size: 14px;&quot;&gt;Data Filtering&lt;/font&gt;" style="whiteSpace=wrap;html=1;rounded=0;fillColor=#dae8fc;strokeColor=#6c8ebf;" vertex="1" parent="2b4e8129b02d487f-3">
          <mxGeometry x="370" y="45" width="120" height="60" as="geometry" />
        </mxCell>
        <mxCell id="igUlxk_vqTw7oJpc5ab_-39" value="" style="edgeStyle=orthogonalEdgeStyle;rounded=0;orthogonalLoop=1;jettySize=auto;html=1;" edge="1" parent="2b4e8129b02d487f-3" source="igUlxk_vqTw7oJpc5ab_-33" target="igUlxk_vqTw7oJpc5ab_-38">
          <mxGeometry relative="1" as="geometry" />
        </mxCell>
        <mxCell id="igUlxk_vqTw7oJpc5ab_-33" value="&lt;font style=&quot;font-size: 14px;&quot;&gt;Data Extraction&lt;/font&gt;" style="whiteSpace=wrap;html=1;rounded=0;fillColor=#dae8fc;strokeColor=#6c8ebf;" vertex="1" parent="2b4e8129b02d487f-3">
          <mxGeometry x="530" y="45" width="120" height="60" as="geometry" />
        </mxCell>
        <mxCell id="igUlxk_vqTw7oJpc5ab_-38" value="&lt;div style=&quot;font-size: 14px;&quot;&gt;&lt;font style=&quot;font-size: 14px;&quot;&gt;JSON&lt;/font&gt;&lt;/div&gt;&lt;div style=&quot;font-size: 14px;&quot;&gt;&lt;font style=&quot;font-size: 14px;&quot;&gt;{ Exp-Data,&lt;/font&gt;&lt;/div&gt;&lt;div style=&quot;font-size: 14px;&quot;&gt;&lt;font style=&quot;font-size: 14px;&quot;&gt;GazeData }&lt;br&gt;&lt;/font&gt;&lt;/div&gt;" style="shape=parallelogram;perimeter=parallelogramPerimeter;whiteSpace=wrap;html=1;fixedSize=1;rounded=0;fillColor=#f5f5f5;fontColor=#333333;strokeColor=#666666;" vertex="1" parent="2b4e8129b02d487f-3">
          <mxGeometry x="690" y="45" width="120" height="60" as="geometry" />
        </mxCell>
        <mxCell id="igUlxk_vqTw7oJpc5ab_-26" style="edgeStyle=orthogonalEdgeStyle;rounded=0;orthogonalLoop=1;jettySize=auto;html=1;exitX=1;exitY=0.5;exitDx=0;exitDy=0;entryX=0.5;entryY=0;entryDx=0;entryDy=0;" edge="1" parent="2b4e8129b02d487f-1" source="igUlxk_vqTw7oJpc5ab_-15" target="igUlxk_vqTw7oJpc5ab_-18">
          <mxGeometry relative="1" as="geometry">
            <Array as="points">
              <mxPoint x="840" y="160" />
              <mxPoint x="840" y="230" />
              <mxPoint x="120" y="230" />
            </Array>
          </mxGeometry>
        </mxCell>
        <mxCell id="igUlxk_vqTw7oJpc5ab_-48" style="rounded=0;orthogonalLoop=1;jettySize=auto;html=1;exitX=1;exitY=0.5;exitDx=0;exitDy=0;entryX=0.5;entryY=0;entryDx=0;entryDy=0;entryPerimeter=0;edgeStyle=orthogonalEdgeStyle;" edge="1" parent="2b4e8129b02d487f-1" source="igUlxk_vqTw7oJpc5ab_-38" target="igUlxk_vqTw7oJpc5ab_-43">
          <mxGeometry relative="1" as="geometry">
            <mxPoint x="100" y="390" as="targetPoint" />
            <mxPoint x="830" y="330" as="sourcePoint" />
            <Array as="points">
              <mxPoint x="830" y="335" />
              <mxPoint x="830" y="390" />
              <mxPoint x="101" y="390" />
            </Array>
          </mxGeometry>
        </mxCell>
        <mxCell id="2b4e8129b02d487f-4" value="&lt;font style=&quot;font-size: 14px;&quot;&gt;Visualization&lt;/font&gt;" style="swimlane;html=1;startSize=20;horizontal=0;" parent="2b4e8129b02d487f-1" vertex="1">
          <mxGeometry y="420" width="860" height="190" as="geometry" />
        </mxCell>
        <mxCell id="igUlxk_vqTw7oJpc5ab_-51" value="" style="edgeStyle=orthogonalEdgeStyle;rounded=0;orthogonalLoop=1;jettySize=auto;html=1;" edge="1" parent="2b4e8129b02d487f-4" source="igUlxk_vqTw7oJpc5ab_-43" target="igUlxk_vqTw7oJpc5ab_-50">
          <mxGeometry relative="1" as="geometry" />
        </mxCell>
        <mxCell id="igUlxk_vqTw7oJpc5ab_-43" value="&lt;div style=&quot;font-size: 14px;&quot;&gt;&lt;font style=&quot;font-size: 14px;&quot;&gt;Type of &lt;br&gt;&lt;/font&gt;&lt;/div&gt;&lt;div style=&quot;font-size: 14px;&quot;&gt;&lt;font style=&quot;font-size: 14px;&quot;&gt;Stimulus?&lt;/font&gt;&lt;/div&gt;" style="strokeWidth=2;html=1;shape=mxgraph.flowchart.decision;whiteSpace=wrap;fillColor=#d5e8d4;strokeColor=#82b366;" vertex="1" parent="2b4e8129b02d487f-4">
          <mxGeometry x="50" y="45" width="101.61" height="100" as="geometry" />
        </mxCell>
        <mxCell id="igUlxk_vqTw7oJpc5ab_-56" style="edgeStyle=orthogonalEdgeStyle;rounded=0;orthogonalLoop=1;jettySize=auto;html=1;entryX=0;entryY=0.5;entryDx=0;entryDy=0;" edge="1" parent="2b4e8129b02d487f-4" source="igUlxk_vqTw7oJpc5ab_-50" target="igUlxk_vqTw7oJpc5ab_-55">
          <mxGeometry relative="1" as="geometry" />
        </mxCell>
        <mxCell id="igUlxk_vqTw7oJpc5ab_-50" value="&lt;div&gt;&lt;font style=&quot;font-size: 14px;&quot;&gt;Draw&amp;nbsp;&lt;/font&gt;&lt;/div&gt;&lt;div&gt;&lt;font size=&quot;3&quot;&gt;Visualizations&lt;/font&gt;&lt;/div&gt;" style="whiteSpace=wrap;html=1;strokeWidth=2;fillColor=#dae8fc;strokeColor=#6c8ebf;" vertex="1" parent="2b4e8129b02d487f-4">
          <mxGeometry x="210" y="65" width="120" height="60" as="geometry" />
        </mxCell>
        <mxCell id="igUlxk_vqTw7oJpc5ab_-55" value="&lt;font style=&quot;font-size: 14px;&quot;&gt;End&lt;/font&gt;" style="ellipse;whiteSpace=wrap;html=1;fillColor=#e1d5e7;strokeColor=#9673a6;" vertex="1" parent="2b4e8129b02d487f-4">
          <mxGeometry x="370" y="72.5" width="120" height="45" as="geometry" />
        </mxCell>
      </root>
    </mxGraphModel>
  </diagram>
</mxfile>
